<svg width="640" height="437" viewBox="0 0 640 437" fill="none" xmlns="http://www.w3.org/2000/svg">
<rect width="640" height="436.757" rx="17.2973" fill="#2B2B2B"/>
<mask id="mask0_467_23134" style="mask-type:alpha" maskUnits="userSpaceOnUse" x="0" y="0" width="640" height="437">
<rect width="640" height="436.757" rx="17.2973" fill="#2B2B2B"/>
</mask>
<g mask="url(#mask0_467_23134)">
<rect y="160" width="86.4865" height="272.432" rx="4.32432" fill="#333333"/>
<rect x="108.108" y="160" width="510.27" height="134.054" rx="4.32432" fill="#333333"/>
<rect x="108.108" y="315.676" width="77.8378" height="77.8378" rx="4.32432" fill="#333333"/>
<rect x="194.595" y="315.676" width="77.8378" height="77.8378" rx="4.32432" fill="#333333"/>
<rect x="281.081" y="315.676" width="77.8378" height="77.8378" rx="4.32432" fill="#333333"/>
<rect x="367.568" y="315.676" width="77.8378" height="77.8378" rx="4.32432" fill="#333333"/>
<rect x="454.054" y="315.676" width="77.8378" height="77.8378" rx="4.32432" fill="#333333"/>
<rect x="540.541" y="315.676" width="77.8378" height="77.8378" rx="4.32432" fill="#333333"/>
<rect x="108.108" y="410.81" width="77.8378" height="77.8378" rx="4.32432" fill="#333333"/>
<rect x="194.594" y="410.81" width="77.8378" height="77.8378" rx="4.32432" fill="#333333"/>
<rect x="281.081" y="410.81" width="77.8378" height="77.8378" rx="4.32432" fill="#333333"/>
<rect x="367.568" y="410.81" width="77.8378" height="77.8378" rx="4.32432" fill="#333333"/>
<rect x="454.054" y="410.81" width="77.8378" height="77.8378" rx="4.32432" fill="#333333"/>
<rect x="540.541" y="410.81" width="77.8378" height="77.8378" rx="4.32432" fill="#333333"/>
</g>
<path d="M4.32422 138.378H635.676" stroke="white" stroke-opacity="0.04" stroke-width="4.32432"/>
<g opacity="0.8">
<circle cx="32.4325" cy="28.1081" r="6.48649" fill="white"/>
<circle cx="58.3786" cy="28.1081" r="6.48649" fill="white"/>
<circle cx="82.1625" cy="28.1081" r="5.40541" stroke="white" stroke-width="2.16216"/>
</g>
<path opacity="0.8" d="M50.0238 100.351V75.9621H53.5179V86.0984C54.0945 85.1297 54.8671 84.4032 55.8357 83.9189C56.8274 83.4115 57.9345 83.1578 59.1568 83.1578C63.1467 83.1578 65.1417 85.418 65.1417 89.9384V100.351H61.6476V90.1459C61.6476 88.693 61.3593 87.6321 60.7828 86.9632C60.2292 86.2944 59.3529 85.96 58.1536 85.96C56.7467 85.96 55.6166 86.4097 54.7633 87.3092C53.933 88.1856 53.5179 89.3503 53.5179 90.8032V100.351H50.0238ZM77.152 100.663C75.0302 100.663 73.4503 100.121 72.4125 99.0367C71.3747 97.9528 70.8557 96.3845 70.8557 94.3319V86.1676H67.5693V83.4692H70.8557V78.3838H74.3498V83.4692H79.5736V86.1676H74.3498V94.0551C74.3498 95.2775 74.6035 96.2 75.1109 96.8227C75.6413 97.4454 76.4947 97.7567 77.6709 97.7567C78.0399 97.7567 78.3974 97.7222 78.7433 97.653C79.0893 97.5607 79.4352 97.4569 79.7811 97.3416L80.3347 99.9708C79.9887 100.178 79.5044 100.34 78.8817 100.455C78.282 100.594 77.7055 100.663 77.152 100.663ZM89.1114 100.663C86.9896 100.663 85.4098 100.121 84.372 99.0367C83.3341 97.9528 82.8152 96.3845 82.8152 94.3319V86.1676H79.5287V83.4692H82.8152V78.3838H86.3093V83.4692H91.533V86.1676H86.3093V94.0551C86.3093 95.2775 86.5629 96.2 87.0703 96.8227C87.6008 97.4454 88.4541 97.7567 89.6303 97.7567C89.9993 97.7567 90.3568 97.7222 90.7028 97.653C91.0487 97.5607 91.3947 97.4569 91.7406 97.3416L92.2941 99.9708C91.9482 100.178 91.4638 100.34 90.8411 100.455C90.2415 100.594 89.6649 100.663 89.1114 100.663ZM94.5509 106.578V83.4692H97.9757V86.3405C98.4601 85.3719 99.1981 84.5993 100.19 84.0227C101.182 83.4461 102.323 83.1578 103.615 83.1578C105.114 83.1578 106.417 83.5153 107.524 84.2303C108.654 84.9452 109.519 85.96 110.118 87.2746C110.741 88.5661 111.052 90.1113 111.052 91.9103C111.052 93.7092 110.741 95.2659 110.118 96.5805C109.519 97.8951 108.654 98.9099 107.524 99.6249C106.417 100.317 105.114 100.663 103.615 100.663C102.369 100.663 101.251 100.397 100.259 99.867C99.2903 99.3135 98.5523 98.564 98.0449 97.6184V106.578H94.5509ZM102.75 97.9643C104.203 97.9643 105.356 97.4454 106.209 96.4076C107.086 95.3697 107.524 93.8706 107.524 91.9103C107.524 89.9499 107.086 88.4623 106.209 87.4476C105.356 86.4097 104.203 85.8908 102.75 85.8908C101.297 85.8908 100.132 86.4097 99.2557 87.4476C98.4024 88.4623 97.9757 89.9499 97.9757 91.9103C97.9757 93.8706 98.4024 95.3697 99.2557 96.4076C100.132 97.4454 101.297 97.9643 102.75 97.9643ZM120.906 100.663C119.522 100.663 118.23 100.49 117.031 100.144C115.832 99.7748 114.829 99.2674 114.021 98.6216L115.025 96.2692C115.878 96.8688 116.812 97.3301 117.827 97.653C118.865 97.9758 119.902 98.1373 120.94 98.1373C122.163 98.1373 123.085 97.9182 123.708 97.48C124.331 97.0418 124.642 96.4537 124.642 95.7157C124.642 95.116 124.434 94.6548 124.019 94.3319C123.604 93.9859 122.981 93.7207 122.151 93.5362L118.865 92.8789C115.959 92.2793 114.506 90.7802 114.506 88.3816C114.506 86.7903 115.14 85.5218 116.408 84.5762C117.677 83.6306 119.337 83.1578 121.39 83.1578C122.566 83.1578 123.685 83.3308 124.746 83.6767C125.83 84.0227 126.729 84.5416 127.444 85.2335L126.441 87.5859C125.749 86.9863 124.953 86.525 124.054 86.2022C123.154 85.8793 122.266 85.7178 121.39 85.7178C120.191 85.7178 119.28 85.9485 118.657 86.4097C118.034 86.8479 117.723 87.4476 117.723 88.2086C117.723 89.3618 118.484 90.0998 120.006 90.4227L123.293 91.08C124.792 91.3798 125.922 91.8872 126.683 92.6022C127.467 93.3171 127.859 94.2858 127.859 95.5081C127.859 97.1225 127.225 98.391 125.957 99.3135C124.688 100.213 123.004 100.663 120.906 100.663ZM131.332 87.5859V83.4692H135.448V87.5859H131.332ZM131.332 100.351V96.2346H135.448V100.351H131.332ZM141.432 102.635L138.768 101.839L147.659 74.2324L150.358 75.0281L141.432 102.635ZM150.182 102.635L147.518 101.839L156.409 74.2324L159.108 75.0281L150.182 102.635ZM164.421 100.351L157.987 83.4692H161.585L166.117 96.2692L170.787 83.4692H173.485L178.086 96.3384L182.687 83.4692H186.112L179.678 100.351H176.495L172.032 88.2778L167.604 100.351H164.421ZM194.658 100.351L188.223 83.4692H191.821L196.353 96.2692L201.023 83.4692H203.722L208.323 96.3384L212.924 83.4692H216.349L209.914 100.351H206.731L202.269 88.2778L197.841 100.351H194.658ZM224.894 100.351L218.46 83.4692H222.058L226.59 96.2692L231.26 83.4692H233.958L238.559 96.3384L243.16 83.4692H246.585L240.151 100.351H236.968L232.505 88.2778L228.077 100.351H224.894ZM247.48 100.351V96.2346H251.597V100.351H247.48ZM265.169 100.663C263.877 100.663 262.736 100.374 261.744 99.7978C260.752 99.2213 260.014 98.4486 259.53 97.48V100.351H256.105V75.9621H259.599V86.2022C260.106 85.2796 260.844 84.5416 261.813 83.9881C262.805 83.4346 263.923 83.1578 265.169 83.1578C266.668 83.1578 267.971 83.5153 269.078 84.2303C270.208 84.9452 271.073 85.96 271.673 87.2746C272.295 88.5661 272.607 90.1113 272.607 91.9103C272.607 93.7092 272.295 95.2659 271.673 96.5805C271.073 97.8951 270.208 98.9099 269.078 99.6249C267.971 100.317 266.668 100.663 265.169 100.663ZM264.304 97.9643C265.757 97.9643 266.91 97.4454 267.763 96.4076C268.64 95.3697 269.078 93.8706 269.078 91.9103C269.078 89.9499 268.64 88.4623 267.763 87.4476C266.91 86.4097 265.757 85.8908 264.304 85.8908C262.851 85.8908 261.686 86.4097 260.81 87.4476C259.956 88.4623 259.53 89.9499 259.53 91.9103C259.53 93.8706 259.956 95.3697 260.81 96.4076C261.686 97.4454 262.851 97.9643 264.304 97.9643ZM283.878 100.663C282.172 100.663 280.695 100.305 279.45 99.5903C278.205 98.8753 277.236 97.8721 276.544 96.5805C275.875 95.2659 275.541 93.7092 275.541 91.9103C275.541 90.1113 275.875 88.5661 276.544 87.2746C277.236 85.96 278.205 84.9452 279.45 84.2303C280.695 83.5153 282.172 83.1578 283.878 83.1578C285.539 83.1578 286.992 83.5153 288.237 84.2303C289.483 84.9452 290.451 85.96 291.143 87.2746C291.835 88.5661 292.181 90.1113 292.181 91.9103C292.181 93.7092 291.835 95.2659 291.143 96.5805C290.451 97.8721 289.483 98.8753 288.237 99.5903C286.992 100.305 285.539 100.663 283.878 100.663ZM283.878 97.9643C285.308 97.9643 286.461 97.4454 287.338 96.4076C288.214 95.3697 288.652 93.8706 288.652 91.9103C288.652 89.9499 288.214 88.4623 287.338 87.4476C286.461 86.4097 285.308 85.8908 283.878 85.8908C282.425 85.8908 281.261 86.4097 280.384 87.4476C279.508 88.4623 279.07 89.9499 279.07 91.9103C279.07 93.8706 279.508 95.3697 280.384 96.4076C281.261 97.4454 282.425 97.9643 283.878 97.9643ZM303.439 100.663C301.732 100.663 300.256 100.305 299.011 99.5903C297.765 98.8753 296.797 97.8721 296.105 96.5805C295.436 95.2659 295.102 93.7092 295.102 91.9103C295.102 90.1113 295.436 88.5661 296.105 87.2746C296.797 85.96 297.765 84.9452 299.011 84.2303C300.256 83.5153 301.732 83.1578 303.439 83.1578C305.1 83.1578 306.553 83.5153 307.798 84.2303C309.043 84.9452 310.012 85.96 310.704 87.2746C311.396 88.5661 311.742 90.1113 311.742 91.9103C311.742 93.7092 311.396 95.2659 310.704 96.5805C310.012 97.8721 309.043 98.8753 307.798 99.5903C306.553 100.305 305.1 100.663 303.439 100.663ZM303.439 97.9643C304.869 97.9643 306.022 97.4454 306.898 96.4076C307.775 95.3697 308.213 93.8706 308.213 91.9103C308.213 89.9499 307.775 88.4623 306.898 87.4476C306.022 86.4097 304.869 85.8908 303.439 85.8908C301.986 85.8908 300.821 86.4097 299.945 87.4476C299.069 88.4623 298.63 89.9499 298.63 91.9103C298.63 93.8706 299.069 95.3697 299.945 96.4076C300.821 97.4454 301.986 97.9643 303.439 97.9643ZM315.735 100.351V83.4692H319.125V86.2022C319.633 85.2335 320.336 84.484 321.235 83.9535C322.135 83.4231 323.184 83.1578 324.384 83.1578C326.967 83.1578 328.639 84.2879 329.4 86.5481C329.93 85.4872 330.691 84.6569 331.683 84.0573C332.675 83.4576 333.805 83.1578 335.073 83.1578C338.856 83.1578 340.747 85.418 340.747 89.9384V100.351H337.253V90.1113C337.253 88.6814 336.999 87.6321 336.492 86.9632C336.007 86.2944 335.2 85.96 334.07 85.96C332.802 85.96 331.798 86.4097 331.06 87.3092C330.322 88.1856 329.953 89.3849 329.953 90.907V100.351H326.459V90.1113C326.459 88.6814 326.217 87.6321 325.733 86.9632C325.248 86.2944 324.441 85.96 323.311 85.96C322.043 85.96 321.039 86.4097 320.301 87.3092C319.586 88.1856 319.229 89.3849 319.229 90.907V100.351H315.735ZM345.632 106.578V83.4692H349.057V86.3405C349.541 85.3719 350.279 84.5993 351.271 84.0227C352.263 83.4461 353.404 83.1578 354.696 83.1578C356.195 83.1578 357.498 83.5153 358.605 84.2303C359.735 84.9452 360.6 85.96 361.2 87.2746C361.822 88.5661 362.134 90.1113 362.134 91.9103C362.134 93.7092 361.822 95.2659 361.2 96.5805C360.6 97.8951 359.735 98.9099 358.605 99.6249C357.498 100.317 356.195 100.663 354.696 100.663C353.45 100.663 352.332 100.397 351.34 99.867C350.371 99.3135 349.633 98.564 349.126 97.6184V106.578H345.632ZM353.831 97.9643C355.284 97.9643 356.437 97.4454 357.29 96.4076C358.167 95.3697 358.605 93.8706 358.605 91.9103C358.605 89.9499 358.167 88.4623 357.29 87.4476C356.437 86.4097 355.284 85.8908 353.831 85.8908C352.378 85.8908 351.213 86.4097 350.337 87.4476C349.483 88.4623 349.057 89.9499 349.057 91.9103C349.057 93.8706 349.483 95.3697 350.337 96.4076C351.213 97.4454 352.378 97.9643 353.831 97.9643ZM371.572 100.663C369.727 100.663 368.343 100.144 367.42 99.1059C366.521 98.0681 366.071 96.5459 366.071 94.5394V75.9621H369.565V94.3319C369.565 96.6151 370.499 97.7567 372.367 97.7567C372.644 97.7567 372.898 97.7452 373.128 97.7222C373.382 97.6991 373.636 97.653 373.89 97.5838L373.82 100.386C373.036 100.57 372.287 100.663 371.572 100.663ZM382.042 100.663C380.866 100.663 379.817 100.432 378.894 99.9708C377.972 99.5095 377.234 98.8868 376.68 98.1027C376.15 97.3185 375.884 96.4306 375.884 95.4389C375.884 94.1935 376.196 93.2133 376.818 92.4984C377.464 91.7834 378.514 91.2645 379.967 90.9416C381.443 90.6187 383.426 90.4573 385.917 90.4573H387.093V89.5578C387.093 88.2432 386.816 87.2976 386.263 86.7211C385.709 86.1445 384.798 85.8562 383.53 85.8562C382.561 85.8562 381.593 86.0061 380.624 86.3059C379.655 86.5827 378.664 87.0324 377.649 87.6551L376.576 85.1989C377.453 84.5762 378.548 84.0803 379.863 83.7113C381.177 83.3423 382.434 83.1578 383.634 83.1578C385.94 83.1578 387.647 83.7113 388.754 84.8184C389.861 85.9023 390.414 87.609 390.414 89.9384V100.351H387.128V97.5492C386.713 98.5178 386.067 99.2789 385.19 99.8324C384.314 100.386 383.265 100.663 382.042 100.663ZM382.734 98.1719C383.98 98.1719 385.017 97.7337 385.848 96.8573C386.678 95.9809 387.093 94.8739 387.093 93.5362V92.6022H385.951C384.268 92.6022 382.942 92.6829 381.973 92.8443C381.027 93.0058 380.347 93.2825 379.932 93.6746C379.54 94.0436 379.344 94.5625 379.344 95.2313C379.344 96.1077 379.644 96.8227 380.243 97.3762C380.843 97.9067 381.673 98.1719 382.734 98.1719ZM396.787 106.578L399.797 99.9016L392.74 83.4692H396.476L401.665 96.3038L406.924 83.4692H410.521L400.454 106.578H396.787ZM410.926 100.351V96.2346H415.043V100.351H410.926ZM426.313 100.663C424.583 100.663 423.084 100.305 421.816 99.5903C420.57 98.8522 419.602 97.8259 418.91 96.5113C418.218 95.1737 417.872 93.6054 417.872 91.8065C417.872 89.1312 418.633 87.0209 420.155 85.4757C421.677 83.9304 423.73 83.1578 426.313 83.1578C427.374 83.1578 428.423 83.3423 429.461 83.7113C430.499 84.0803 431.352 84.5877 432.021 85.2335L430.914 87.6897C430.268 87.0901 429.553 86.6519 428.769 86.3751C428.008 86.0753 427.282 85.9254 426.59 85.9254C424.952 85.9254 423.684 86.4443 422.784 87.4822C421.908 88.4969 421.47 89.9499 421.47 91.8411C421.47 93.7322 421.908 95.2198 422.784 96.3038C423.684 97.3647 424.952 97.8951 426.59 97.8951C427.282 97.8951 428.008 97.7567 428.769 97.48C429.553 97.1802 430.268 96.7304 430.914 96.1308L432.021 98.6216C431.352 99.2443 430.487 99.7402 429.427 100.109C428.389 100.478 427.351 100.663 426.313 100.663ZM442.02 100.663C440.313 100.663 438.837 100.305 437.592 99.5903C436.347 98.8753 435.378 97.8721 434.686 96.5805C434.017 95.2659 433.683 93.7092 433.683 91.9103C433.683 90.1113 434.017 88.5661 434.686 87.2746C435.378 85.96 436.347 84.9452 437.592 84.2303C438.837 83.5153 440.313 83.1578 442.02 83.1578C443.681 83.1578 445.134 83.5153 446.379 84.2303C447.624 84.9452 448.593 85.96 449.285 87.2746C449.977 88.5661 450.323 90.1113 450.323 91.9103C450.323 93.7092 449.977 95.2659 449.285 96.5805C448.593 97.8721 447.624 98.8753 446.379 99.5903C445.134 100.305 443.681 100.663 442.02 100.663ZM442.02 97.9643C443.45 97.9643 444.603 97.4454 445.48 96.4076C446.356 95.3697 446.794 93.8706 446.794 91.9103C446.794 89.9499 446.356 88.4623 445.48 87.4476C444.603 86.4097 443.45 85.8908 442.02 85.8908C440.567 85.8908 439.402 86.4097 438.526 87.4476C437.65 88.4623 437.211 89.9499 437.211 91.9103C437.211 93.8706 437.65 95.3697 438.526 96.4076C439.402 97.4454 440.567 97.9643 442.02 97.9643ZM454.316 100.351V83.4692H457.706V86.2022C458.214 85.2335 458.917 84.484 459.817 83.9535C460.716 83.4231 461.765 83.1578 462.965 83.1578C465.548 83.1578 467.22 84.2879 467.981 86.5481C468.511 85.4872 469.272 84.6569 470.264 84.0573C471.256 83.4576 472.386 83.1578 473.654 83.1578C477.437 83.1578 479.328 85.418 479.328 89.9384V100.351H475.834V90.1113C475.834 88.6814 475.58 87.6321 475.073 86.9632C474.588 86.2944 473.781 85.96 472.651 85.96C471.383 85.96 470.379 86.4097 469.641 87.3092C468.903 88.1856 468.534 89.3849 468.534 90.907V100.351H465.04V90.1113C465.04 88.6814 464.798 87.6321 464.314 86.9632C463.83 86.2944 463.022 85.96 461.892 85.96C460.624 85.96 459.621 86.4097 458.883 87.3092C458.168 88.1856 457.81 89.3849 457.81 90.907V100.351H454.316Z" fill="white"/>
<rect x="28.1082" y="62.7027" width="557.838" height="51.8919" rx="6.48649" stroke="#00FFFF" stroke-width="4.32432"/>
<rect x="2.16216" y="2.16216" width="635.676" height="432.432" rx="15.1351" stroke="white" stroke-opacity="0.04" stroke-width="4.32432"/>
<path d="M551.601 187.587L537.92 151.52C537.259 149.777 538.965 148.07 540.708 148.731L576.776 162.412C578.391 163.025 578.671 165.189 577.266 166.193L571.928 170.006C570.841 170.782 570.711 172.349 571.656 173.294L583.611 185.249C584.455 186.094 584.455 187.463 583.611 188.307L577.496 194.423C576.651 195.267 575.282 195.267 574.438 194.423L562.483 182.467C561.538 181.523 559.971 181.652 559.194 182.74L555.382 188.077C554.378 189.483 552.213 189.202 551.601 187.587Z" fill="white"/>
<path d="M549.188 142.703L555.675 136.216" stroke="white" stroke-width="6.48649" stroke-linecap="round"/>
<path d="M528.091 151.599L518.918 151.629" stroke="white" stroke-width="6.48649" stroke-linecap="round"/>
<path d="M540.802 138.903V129.729" stroke="white" stroke-width="6.48649" stroke-linecap="round"/>
<path d="M531.892 142.703L525.405 136.216" stroke="white" stroke-width="6.48649" stroke-linecap="round"/>
<path d="M531.362 160.205L524.896 166.713" stroke="white" stroke-width="6.48649" stroke-linecap="round"/>
</svg>
