<svg width="640" height="438" viewBox="0 0 640 438" fill="none" xmlns="http://www.w3.org/2000/svg">
<rect y="0.756836" width="640" height="436.757" rx="17.2973" fill="#2B2B2B"/>
<mask id="mask0_467_23242" style="mask-type:alpha" maskUnits="userSpaceOnUse" x="0" y="0" width="640" height="438">
<rect y="0.756836" width="640" height="436.757" rx="17.2973" fill="#2B2B2B"/>
</mask>
<g mask="url(#mask0_467_23242)">
<rect y="160.757" width="86.4865" height="272.432" rx="4.32433" fill="#333333"/>
<rect x="108.108" y="160.757" width="510.27" height="134.054" rx="4.32433" fill="#333333"/>
<rect x="108.108" y="316.432" width="77.8379" height="77.8379" rx="4.32433" fill="#333333"/>
<rect x="194.595" y="316.432" width="77.8379" height="77.8379" rx="4.32433" fill="#333333"/>
<rect x="281.082" y="316.432" width="77.8379" height="77.8379" rx="4.32433" fill="#333333"/>
<rect x="367.568" y="316.432" width="77.8379" height="77.8379" rx="4.32433" fill="#333333"/>
<rect x="454.054" y="316.432" width="77.8379" height="77.8379" rx="4.32433" fill="#333333"/>
<rect x="540.541" y="316.432" width="77.8379" height="77.8379" rx="4.32433" fill="#333333"/>
<rect x="108.108" y="411.568" width="77.8379" height="77.8379" rx="4.32433" fill="#333333"/>
<rect x="194.595" y="411.568" width="77.8379" height="77.8379" rx="4.32433" fill="#333333"/>
<rect x="281.082" y="411.568" width="77.8379" height="77.8379" rx="4.32433" fill="#333333"/>
<rect x="367.568" y="411.568" width="77.8379" height="77.8379" rx="4.32433" fill="#333333"/>
<rect x="454.054" y="411.568" width="77.8379" height="77.8379" rx="4.32433" fill="#333333"/>
<rect x="540.541" y="411.568" width="77.8379" height="77.8379" rx="4.32433" fill="#333333"/>
</g>
<path d="M4.32471 139.135H635.676" stroke="white" stroke-opacity="0.04" stroke-width="4.32433"/>
<g opacity="0.8">
<circle cx="32.4323" cy="28.8649" r="6.48649" fill="white"/>
<circle cx="58.3783" cy="28.8649" r="6.48649" fill="white"/>
<circle cx="82.1623" cy="28.8649" r="5.40541" stroke="white" stroke-width="2.16216"/>
</g>
<rect x="25.9458" y="61.2975" width="307.027" height="56.2162" rx="8.64865" fill="#333333"/>
<mask id="mask1_467_23242" style="mask-type:alpha" maskUnits="userSpaceOnUse" x="25" y="61" width="308" height="57">
<rect x="25.9458" y="61.2975" width="307.027" height="56.2162" rx="8.64865" fill="#333333"/>
</mask>
<g mask="url(#mask1_467_23242)">
<path opacity="0.2" d="M-146.733 101.108V76.7188H-143.239V86.8551C-142.662 85.8864 -141.89 85.1599 -140.921 84.6756C-139.929 84.1682 -138.822 83.9145 -137.6 83.9145C-133.61 83.9145 -131.615 86.1747 -131.615 90.6951V101.108H-135.109V90.9026C-135.109 89.4497 -135.397 88.3888 -135.974 87.7199C-136.527 87.0511 -137.404 86.7167 -138.603 86.7167C-140.01 86.7167 -141.14 87.1664 -141.993 88.0659C-142.824 88.9423 -143.239 90.1069 -143.239 91.5599V101.108H-146.733ZM-119.605 101.419C-121.726 101.419 -123.306 100.877 -124.344 99.7934C-125.382 98.7095 -125.901 97.1412 -125.901 95.0886V86.9242H-129.187V84.2259H-125.901V79.1405H-122.407V84.2259H-117.183V86.9242H-122.407V94.8118C-122.407 96.0342 -122.153 96.9567 -121.646 97.5794C-121.115 98.2021 -120.262 98.5134 -119.086 98.5134C-118.717 98.5134 -118.359 98.4788 -118.013 98.4097C-117.667 98.3174 -117.321 98.2136 -116.975 98.0983L-116.422 100.727C-116.768 100.935 -117.252 101.097 -117.875 101.212C-118.475 101.35 -119.051 101.419 -119.605 101.419ZM-107.645 101.419C-109.767 101.419 -111.347 100.877 -112.385 99.7934C-113.422 98.7095 -113.941 97.1412 -113.941 95.0886V86.9242H-117.228V84.2259H-113.941V79.1405H-110.447V84.2259H-105.224V86.9242H-110.447V94.8118C-110.447 96.0342 -110.194 96.9567 -109.686 97.5794C-109.156 98.2021 -108.302 98.5134 -107.126 98.5134C-106.757 98.5134 -106.4 98.4788 -106.054 98.4097C-105.708 98.3174 -105.362 98.2136 -105.016 98.0983L-104.462 100.727C-104.808 100.935 -105.293 101.097 -105.915 101.212C-106.515 101.35 -107.092 101.419 -107.645 101.419ZM-102.206 107.335V84.2259H-98.7808V87.0972C-98.2965 86.1286 -97.5585 85.356 -96.5668 84.7794C-95.5751 84.2028 -94.4335 83.9145 -93.1419 83.9145C-91.6428 83.9145 -90.3398 84.272 -89.2327 84.9869C-88.1026 85.7019 -87.2378 86.7167 -86.6381 88.0313C-86.0154 89.3228 -85.7041 90.868 -85.7041 92.6669C-85.7041 94.4659 -86.0154 96.0226 -86.6381 97.3372C-87.2378 98.6518 -88.1026 99.6666 -89.2327 100.382C-90.3398 101.073 -91.6428 101.419 -93.1419 101.419C-94.3873 101.419 -95.5059 101.154 -96.4976 100.624C-97.4663 100.07 -98.2043 99.3206 -98.7117 98.3751V107.335H-102.206ZM-94.0068 98.721C-92.5538 98.721 -91.4007 98.2021 -90.5473 97.1642C-89.6709 96.1264 -89.2327 94.6273 -89.2327 92.6669C-89.2327 90.7066 -89.6709 89.219 -90.5473 88.2042C-91.4007 87.1664 -92.5538 86.6475 -94.0068 86.6475C-95.4598 86.6475 -96.6245 87.1664 -97.5008 88.2042C-98.3542 89.219 -98.7808 90.7066 -98.7808 92.6669C-98.7808 94.6273 -98.3542 96.1264 -97.5008 97.1642C-96.6245 98.2021 -95.4598 98.721 -94.0068 98.721ZM-75.8508 101.419C-77.2346 101.419 -78.5262 101.246 -79.7254 100.9C-80.9247 100.531 -81.928 100.024 -82.7352 99.3783L-81.7319 97.0259C-80.8786 97.6255 -79.9445 98.0868 -78.9298 98.4097C-77.8919 98.7325 -76.8541 98.894 -75.8162 98.894C-74.5939 98.894 -73.6714 98.6749 -73.0487 98.2367C-72.426 97.7985 -72.1146 97.2104 -72.1146 96.4724C-72.1146 95.8727 -72.3222 95.4115 -72.7373 95.0886C-73.1525 94.7426 -73.7752 94.4774 -74.6054 94.2929L-77.8919 93.6356C-80.7979 93.036 -82.2508 91.5369 -82.2508 89.1383C-82.2508 87.5469 -81.6166 86.2785 -80.3481 85.3329C-79.0797 84.3873 -77.4191 83.9145 -75.3665 83.9145C-74.1903 83.9145 -73.0717 84.0875 -72.0108 84.4334C-70.9269 84.7794 -70.0274 85.2983 -69.3125 85.9902L-70.3157 88.3426C-71.0076 87.743 -71.8033 87.2817 -72.7027 86.9588C-73.6022 86.636 -74.4901 86.4745 -75.3665 86.4745C-76.5658 86.4745 -77.4768 86.7051 -78.0995 87.1664C-78.7222 87.6046 -79.0335 88.2042 -79.0335 88.9653C-79.0335 90.1185 -78.2725 90.8565 -76.7503 91.1794L-73.4638 91.8367C-71.9647 92.1365 -70.8346 92.6439 -70.0735 93.3588C-69.2894 94.0738 -68.8973 95.0424 -68.8973 96.2648C-68.8973 97.8792 -69.5316 99.1477 -70.8 100.07C-72.0685 100.97 -73.7521 101.419 -75.8508 101.419ZM-65.4249 88.3426V84.2259H-61.3081V88.3426H-65.4249ZM-65.4249 101.108V96.9913H-61.3081V101.108H-65.4249ZM-55.3244 103.391L-57.9881 102.596L-49.0973 74.9891L-46.3989 75.7848L-55.3244 103.391ZM-46.5744 103.391L-49.2381 102.596L-40.3473 74.9891L-37.6489 75.7848L-46.5744 103.391ZM-32.3352 101.108L-38.7698 84.2259H-35.1719L-30.64 97.0259L-25.9698 84.2259H-23.2714L-18.6703 97.0951L-14.0692 84.2259H-10.6443L-17.0789 101.108H-20.2616L-24.7243 89.0345L-29.1525 101.108H-32.3352ZM-2.09866 101.108L-8.53326 84.2259H-4.93542L-0.403529 97.0259L4.26674 84.2259H6.96512L11.5662 97.0951L16.1673 84.2259H19.5922L13.1576 101.108H9.97485L5.51215 89.0345L1.08404 101.108H-2.09866ZM28.1378 101.108L21.7032 84.2259H25.3011L29.833 97.0259L34.5032 84.2259H37.2016L41.8027 97.0951L46.4038 84.2259H49.8286L43.3941 101.108H40.2113L35.7486 89.0345L31.3205 101.108H28.1378ZM50.7238 101.108V96.9913H54.8405V101.108H50.7238ZM68.4122 101.419C67.1206 101.419 65.979 101.131 64.9873 100.555C63.9956 99.9779 63.2576 99.2053 62.7732 98.2367V101.108H59.3484V76.7188H62.8424V86.9588C63.3498 86.0363 64.0878 85.2983 65.0565 84.7448C66.0482 84.1913 67.1667 83.9145 68.4122 83.9145C69.9113 83.9145 71.2143 84.272 72.3213 84.9869C73.4514 85.7019 74.3163 86.7167 74.9159 88.0313C75.5386 89.3228 75.85 90.868 75.85 92.6669C75.85 94.4659 75.5386 96.0226 74.9159 97.3372C74.3163 98.6518 73.4514 99.6666 72.3213 100.382C71.2143 101.073 69.9113 101.419 68.4122 101.419ZM67.5473 98.721C69.0003 98.721 70.1534 98.2021 71.0067 97.1642C71.8831 96.1264 72.3213 94.6273 72.3213 92.6669C72.3213 90.7066 71.8831 89.219 71.0067 88.2042C70.1534 87.1664 69.0003 86.6475 67.5473 86.6475C66.0943 86.6475 64.9296 87.1664 64.0532 88.2042C63.1999 89.219 62.7732 90.7066 62.7732 92.6669C62.7732 94.6273 63.1999 96.1264 64.0532 97.1642C64.9296 98.2021 66.0943 98.721 67.5473 98.721ZM87.1216 101.419C85.415 101.419 83.9389 101.062 82.6935 100.347C81.4481 99.632 80.4795 98.6288 79.7876 97.3372C79.1187 96.0226 78.7843 94.4659 78.7843 92.6669C78.7843 90.868 79.1187 89.3228 79.7876 88.0313C80.4795 86.7167 81.4481 85.7019 82.6935 84.9869C83.9389 84.272 85.415 83.9145 87.1216 83.9145C88.7822 83.9145 90.2351 84.272 91.4805 84.9869C92.7259 85.7019 93.6946 86.7167 94.3865 88.0313C95.0784 89.3228 95.4243 90.868 95.4243 92.6669C95.4243 94.4659 95.0784 96.0226 94.3865 97.3372C93.6946 98.6288 92.7259 99.632 91.4805 100.347C90.2351 101.062 88.7822 101.419 87.1216 101.419ZM87.1216 98.721C88.5515 98.721 89.7047 98.2021 90.5811 97.1642C91.4575 96.1264 91.8957 94.6273 91.8957 92.6669C91.8957 90.7066 91.4575 89.219 90.5811 88.2042C89.7047 87.1664 88.5515 86.6475 87.1216 86.6475C85.6686 86.6475 84.504 87.1664 83.6276 88.2042C82.7512 89.219 82.313 90.7066 82.313 92.6669C82.313 94.6273 82.7512 96.1264 83.6276 97.1642C84.504 98.2021 85.6686 98.721 87.1216 98.721ZM106.682 101.419C104.976 101.419 103.5 101.062 102.254 100.347C101.009 99.632 100.04 98.6288 99.3484 97.3372C98.6796 96.0226 98.3451 94.4659 98.3451 92.6669C98.3451 90.868 98.6796 89.3228 99.3484 88.0313C100.04 86.7167 101.009 85.7019 102.254 84.9869C103.5 84.272 104.976 83.9145 106.682 83.9145C108.343 83.9145 109.796 84.272 111.041 84.9869C112.287 85.7019 113.255 86.7167 113.947 88.0313C114.639 89.3228 114.985 90.868 114.985 92.6669C114.985 94.4659 114.639 96.0226 113.947 97.3372C113.255 98.6288 112.287 99.632 111.041 100.347C109.796 101.062 108.343 101.419 106.682 101.419ZM106.682 98.721C108.112 98.721 109.266 98.2021 110.142 97.1642C111.018 96.1264 111.456 94.6273 111.456 92.6669C111.456 90.7066 111.018 89.219 110.142 88.2042C109.266 87.1664 108.112 86.6475 106.682 86.6475C105.229 86.6475 104.065 87.1664 103.188 88.2042C102.312 89.219 101.874 90.7066 101.874 92.6669C101.874 94.6273 102.312 96.1264 103.188 97.1642C104.065 98.2021 105.229 98.721 106.682 98.721ZM118.978 101.108V84.2259H122.369V86.9588C122.876 85.9902 123.579 85.2406 124.479 84.7102C125.378 84.1797 126.428 83.9145 127.627 83.9145C130.21 83.9145 131.882 85.0446 132.643 87.3048C133.174 86.2439 133.935 85.4136 134.926 84.814C135.918 84.2143 137.048 83.9145 138.317 83.9145C142.099 83.9145 143.99 86.1747 143.99 90.6951V101.108H140.496V90.868C140.496 89.4381 140.243 88.3888 139.735 87.7199C139.251 87.0511 138.444 86.7167 137.314 86.7167C136.045 86.7167 135.042 87.1664 134.304 88.0659C133.566 88.9423 133.197 90.1415 133.197 91.6637V101.108H129.703V90.868C129.703 89.4381 129.461 88.3888 128.976 87.7199C128.492 87.0511 127.685 86.7167 126.555 86.7167C125.286 86.7167 124.283 87.1664 123.545 88.0659C122.83 88.9423 122.472 90.1415 122.472 91.6637V101.108H118.978ZM148.875 107.335V84.2259H152.3V87.0972C152.785 86.1286 153.523 85.356 154.514 84.7794C155.506 84.2028 156.648 83.9145 157.939 83.9145C159.438 83.9145 160.741 84.272 161.848 84.9869C162.978 85.7019 163.843 86.7167 164.443 88.0313C165.066 89.3228 165.377 90.868 165.377 92.6669C165.377 94.4659 165.066 96.0226 164.443 97.3372C163.843 98.6518 162.978 99.6666 161.848 100.382C160.741 101.073 159.438 101.419 157.939 101.419C156.694 101.419 155.575 101.154 154.584 100.624C153.615 100.07 152.877 99.3206 152.369 98.3751V107.335H148.875ZM157.074 98.721C158.527 98.721 159.68 98.2021 160.534 97.1642C161.41 96.1264 161.848 94.6273 161.848 92.6669C161.848 90.7066 161.41 89.219 160.534 88.2042C159.68 87.1664 158.527 86.6475 157.074 86.6475C155.621 86.6475 154.457 87.1664 153.58 88.2042C152.727 89.219 152.3 90.7066 152.3 92.6669C152.3 94.6273 152.727 96.1264 153.58 97.1642C154.457 98.2021 155.621 98.721 157.074 98.721ZM174.815 101.419C172.97 101.419 171.586 100.9 170.664 99.8626C169.764 98.8248 169.315 97.3026 169.315 95.2961V76.7188H172.809V95.0886C172.809 97.3718 173.743 98.5134 175.611 98.5134C175.888 98.5134 176.141 98.5019 176.372 98.4788C176.626 98.4558 176.879 98.4097 177.133 98.3405L177.064 101.143C176.28 101.327 175.53 101.419 174.815 101.419ZM185.286 101.419C184.109 101.419 183.06 101.189 182.138 100.727C181.215 100.266 180.477 99.6435 179.924 98.8594C179.393 98.0752 179.128 97.1873 179.128 96.1956C179.128 94.9502 179.439 93.97 180.062 93.2551C180.708 92.5401 181.757 92.0212 183.21 91.6983C184.686 91.3754 186.669 91.214 189.16 91.214H190.336V90.3145C190.336 88.9999 190.06 88.0543 189.506 87.4778C188.953 86.9012 188.042 86.6129 186.773 86.6129C185.805 86.6129 184.836 86.7628 183.867 87.0626C182.899 87.3394 181.907 87.7891 180.892 88.4118L179.82 85.9556C180.696 85.3329 181.792 84.837 183.106 84.468C184.421 84.099 185.678 83.9145 186.877 83.9145C189.183 83.9145 190.89 84.468 191.997 85.5751C193.104 86.659 193.658 88.3657 193.658 90.6951V101.108H190.371V98.3059C189.956 99.2745 189.31 100.036 188.434 100.589C187.557 101.143 186.508 101.419 185.286 101.419ZM185.978 98.9286C187.223 98.9286 188.261 98.4904 189.091 97.614C189.921 96.7376 190.336 95.6306 190.336 94.2929V93.3588H189.195C187.511 93.3588 186.185 93.4396 185.216 93.601C184.271 93.7624 183.591 94.0392 183.175 94.4313C182.783 94.8003 182.587 95.3192 182.587 95.988C182.587 96.8644 182.887 97.5794 183.487 98.1329C184.086 98.6633 184.917 98.9286 185.978 98.9286ZM200.031 107.335L203.041 100.658L195.983 84.2259H199.719L204.909 97.0605L210.167 84.2259H213.765L203.698 107.335H200.031ZM214.17 101.108V96.9913H218.287V101.108H214.17ZM229.557 101.419C227.827 101.419 226.328 101.062 225.059 100.347C223.814 99.6089 222.845 98.5826 222.153 97.268C221.461 95.9304 221.115 94.3621 221.115 92.5632C221.115 89.8878 221.876 87.7776 223.399 86.2324C224.921 84.6871 226.973 83.9145 229.557 83.9145C230.617 83.9145 231.667 84.099 232.705 84.468C233.742 84.837 234.596 85.3444 235.265 85.9902L234.158 88.4464C233.512 87.8468 232.797 87.4086 232.013 87.1318C231.252 86.832 230.525 86.6821 229.833 86.6821C228.196 86.6821 226.927 87.201 226.028 88.2388C225.151 89.2536 224.713 90.7066 224.713 92.5978C224.713 94.4889 225.151 95.9765 226.028 97.0605C226.927 98.1214 228.196 98.6518 229.833 98.6518C230.525 98.6518 231.252 98.5134 232.013 98.2367C232.797 97.9369 233.512 97.4871 234.158 96.8875L235.265 99.3783C234.596 100.001 233.731 100.497 232.67 100.866C231.632 101.235 230.594 101.419 229.557 101.419ZM245.264 101.419C243.557 101.419 242.081 101.062 240.835 100.347C239.59 99.632 238.621 98.6288 237.929 97.3372C237.261 96.0226 236.926 94.4659 236.926 92.6669C236.926 90.868 237.261 89.3228 237.929 88.0313C238.621 86.7167 239.59 85.7019 240.835 84.9869C242.081 84.272 243.557 83.9145 245.264 83.9145C246.924 83.9145 248.377 84.272 249.622 84.9869C250.868 85.7019 251.837 86.7167 252.528 88.0313C253.22 89.3228 253.566 90.868 253.566 92.6669C253.566 94.4659 253.22 96.0226 252.528 97.3372C251.837 98.6288 250.868 99.632 249.622 100.347C248.377 101.062 246.924 101.419 245.264 101.419ZM245.264 98.721C246.693 98.721 247.847 98.2021 248.723 97.1642C249.599 96.1264 250.038 94.6273 250.038 92.6669C250.038 90.7066 249.599 89.219 248.723 88.2042C247.847 87.1664 246.693 86.6475 245.264 86.6475C243.811 86.6475 242.646 87.1664 241.769 88.2042C240.893 89.219 240.455 90.7066 240.455 92.6669C240.455 94.6273 240.893 96.1264 241.769 97.1642C242.646 98.2021 243.811 98.721 245.264 98.721ZM257.559 101.108V84.2259H260.95V86.9588C261.457 85.9902 262.161 85.2406 263.06 84.7102C263.959 84.1797 265.009 83.9145 266.208 83.9145C268.791 83.9145 270.463 85.0446 271.224 87.3048C271.755 86.2439 272.516 85.4136 273.508 84.814C274.499 84.2143 275.629 83.9145 276.898 83.9145C280.68 83.9145 282.571 86.1747 282.571 90.6951V101.108H279.077V90.868C279.077 89.4381 278.824 88.3888 278.316 87.7199C277.832 87.0511 277.025 86.7167 275.895 86.7167C274.626 86.7167 273.623 87.1664 272.885 88.0659C272.147 88.9423 271.778 90.1415 271.778 91.6637V101.108H268.284V90.868C268.284 89.4381 268.042 88.3888 267.557 87.7199C267.073 87.0511 266.266 86.7167 265.136 86.7167C263.867 86.7167 262.864 87.1664 262.126 88.0659C261.411 88.9423 261.054 90.1415 261.054 91.6637V101.108H257.559Z" fill="white"/>
</g>
<rect x="2.16216" y="2.919" width="635.676" height="432.433" rx="15.1351" stroke="white" stroke-opacity="0.04" stroke-width="4.32433"/>
<path d="M562.413 214.29L548.732 178.223C548.071 176.48 549.778 174.773 551.521 175.434L587.588 189.115C589.203 189.728 589.484 191.893 588.078 192.896L582.741 196.709C581.653 197.486 581.524 199.053 582.468 199.997L594.424 211.952C595.268 212.797 595.268 214.166 594.424 215.01L588.308 221.126C587.464 221.97 586.095 221.97 585.25 221.126L573.295 209.171C572.35 208.226 570.783 208.355 570.007 209.443L566.194 214.78C565.19 216.186 563.026 215.905 562.413 214.29Z" fill="white"/>
<path d="M560.002 169.406L566.488 162.919" stroke="white" stroke-width="6.48649" stroke-linecap="round"/>
<path d="M538.904 178.302L529.731 178.332" stroke="white" stroke-width="6.48649" stroke-linecap="round"/>
<path d="M551.615 165.606V156.433" stroke="white" stroke-width="6.48649" stroke-linecap="round"/>
<path d="M542.704 169.406L536.218 162.92" stroke="white" stroke-width="6.48649" stroke-linecap="round"/>
<path d="M542.174 186.908L535.709 193.416" stroke="white" stroke-width="6.48649" stroke-linecap="round"/>
<circle cx="393.514" cy="89.4054" r="21.6216" fill="#444444"/>
<circle cx="454.054" cy="89.4054" r="21.6216" fill="#444444"/>
<circle cx="575.135" cy="89.4054" r="21.6216" fill="#444444"/>
<circle cx="512.433" cy="89.4054" r="56.2184" fill="white" stroke="#00FFFF" stroke-width="4.32"/>
<path d="M524.221 67.5135V91.0894" stroke="#666666" stroke-width="6.48649"/>
<path d="M512.432 83.2325L524.22 95.0204L536.008 83.2325" stroke="#666666" stroke-width="6.48649"/>
<path d="M495.439 116.527L498.32 107.882C498.534 107.24 499.135 106.807 499.811 106.807H525.051C525.727 106.807 526.328 107.24 526.542 107.882L529.423 116.527C529.763 117.544 529.005 118.595 527.932 118.595H496.93C495.857 118.595 495.099 117.544 495.439 116.527Z" fill="#666666"/>
<path d="M506.539 69.4767H488.464C487.596 69.4767 486.892 70.1804 486.892 71.0484V105.233C486.892 106.101 487.596 106.805 488.464 106.805H536.401C537.269 106.805 537.973 106.101 537.973 105.233V96.9819" stroke="#666666" stroke-width="6.48649"/>
</svg>
